# xmcd CD database file
#
# Track frame offsets:
#	150
#	19610
#	36245
#	56308
#	72673
#	89009
#	103141
#	122878
#	140025
#	160207
#	178927
#	203130
#
# Disc length: 2885 seconds
#
# Revision: 0
# Processed by: cddbd v1.5.2PL0 Copyright (c) Steve Scherf et al.
# Submitted via: CDex 1.70beta2
#
DISCID=b40b430c
DTITLE=The Malford Milligan Band - Rides Again
DYEAR=2006
DGENRE=Blues
TTITLE0=Palace Of The King
TTITLE1=Evergreen
TTITLE2=No Beginner At The Blues
TTITLE3=Can't Go On
TTITLE4=These Arms Of Mine
TTITLE5=Blow Wind Blow
TTITLE6=Today I Started Loving You Again
TTITLE7=Ain't Nobody
TTITLE8=Stingy
TTITLE9=Drive
TTITLE10=I've Got Dreams To Remember
TTITLE11=That Lonesome Road
EXTD=YEAR: 2006
EXTT0=
EXTT1=
EXTT2=
EXTT3=
EXTT4=
EXTT5=
EXTT6=
EXTT7=
EXTT8=
EXTT9=
EXTT10=
EXTT11=
PLAYORDER=
